<?xml version="1.0" encoding="UTF-8" standalone="no"?>
<svg width="612px" height="612px" viewBox="0 0 612 612" version="1.1" xmlns="http://www.w3.org/2000/svg" xmlns:xlink="http://www.w3.org/1999/xlink" xmlns:sketch="http://www.bohemiancoding.com/sketch/ns">
    <!-- Generator: Sketch 3.2.2 (9983) - http://www.bohemiancoding.com/sketch -->
    <title>Shape + Shape</title>
    <desc>Created with Sketch.</desc>
    <defs>
        <radialGradient cx="57.8456904%" cy="10.8621834%" fx="57.8456904%" fy="10.8621834%" r="81.5742507%" id="radialGradient-1">
            <stop stop-color="#9013FE" offset="0%"></stop>
            <stop stop-color="#0099EA" offset="100%"></stop>
        </radialGradient>
    </defs>
    <g id="Page-1" stroke="none" stroke-width="1" fill="none" fill-rule="evenodd" sketch:type="MSPage">
        <g id="Shape-+-Shape" sketch:type="MSLayerGroup">
            <path d="M612,306 C612,137.004 474.995,0 306,0 C137.004,0 0,137.004 0,306 C0,474.995 137.004,612 306,612 C474.995,612 612,474.995 612,306 L612,306 Z M27.818,306 C27.818,152.36 152.36,27.818 306,27.818 C459.64,27.818 584.182,152.36 584.182,306 C584.182,459.64 459.64,584.182 306,584.182 C152.36,584.182 27.818,459.64 27.818,306 L27.818,306 Z" id="Shape" fill="url(#radialGradient-1)" sketch:type="MSShapeGroup"></path>
            <path d="M437.358,245.403375 C437.358,242.315375 437.302,239.255375 437.163,236.223375 C450.377,226.375375 461.838,214.052375 470.907,199.948375 C458.778,205.401375 445.759,209.045375 432.072,210.574375 C446.037,201.978375 456.747,188.236375 461.81,171.740375 C448.735,179.668375 434.27,185.343375 418.886,188.292375 C406.563,174.271375 388.982,165.342375 369.536,165.008375 C332.204,164.396375 301.938,195.942375 301.938,235.471375 C301.938,241.090375 302.522,246.543375 303.69,251.800375 C247.47,248.184375 197.648,218.919375 164.321,174.800375 C158.507,185.371375 155.169,197.722375 155.169,210.964375 C155.169,236.001375 167.103,258.255375 185.24,271.385375 C174.141,270.885375 163.737,267.519375 154.613,262.010375 L154.613,262.928375 C154.613,297.924375 177.925,327.244375 208.858,334.087375 C203.183,335.700375 197.202,336.535375 191.054,336.508375 C186.687,336.480375 182.458,336.007375 178.341,335.116375 C186.937,363.797375 211.918,384.744375 241.488,385.439375 C218.343,404.633375 189.19,416.094375 157.533,416.011375 C152.08,416.011375 146.684,415.650375 141.398,414.982375 C171.331,435.512375 206.854,447.473375 245.048,447.473375 C369.369,447.502375 437.358,339.289375 437.358,245.403375 L437.358,245.403375 Z" id="Shape" fill="#0099EA" sketch:type="MSShapeGroup"></path>
        </g>
    </g>
</svg>