<?xml version="1.0" encoding="UTF-8" standalone="no"?>
<svg width="602px" height="326px" viewBox="0 0 602 326" version="1.1" xmlns="http://www.w3.org/2000/svg" xmlns:xlink="http://www.w3.org/1999/xlink" xmlns:sketch="http://www.bohemiancoding.com/sketch/ns">
    <!-- Generator: Sketch 3.2.2 (9983) - http://www.bohemiancoding.com/sketch -->
    <title>Logo</title>
    <desc>Created with Sketch.</desc>
    <defs>
        <radialGradient cx="50%" cy="0%" fx="50%" fy="0%" r="100%" id="radialGradient-1">
            <stop stop-color="#9B00FF" offset="0%"></stop>
            <stop stop-color="#00C8FF" offset="100%"></stop>
        </radialGradient>
    </defs>
    <g id="Page-1" stroke="none" stroke-width="1" fill="none" fill-rule="evenodd" sketch:type="MSPage">
        <g id="Logo" sketch:type="MSLayerGroup" transform="translate(13.000000, 9.000000)" stroke="url(#radialGradient-1)">
            <g id="A" transform="translate(0.000000, 8.000000)" sketch:type="MSShapeGroup">
                <path d="M192.425713,236.445314 L208.543546,268.653226 L52.409117,268.653226 L86.0664607,201.396495 C100.002395,226.787924 126.99115,244 158,244 C170.294916,244 181.957833,241.294092 192.425713,236.445314 Z" id="a-cut" stroke-width="10"></path>
                <polygon id="a" stroke-width="15" points="150.476331 0.306451613 300.952663 301 0 301 "></polygon>
            </g>
            <g id="B" transform="translate(341.000000, 0.000000)" sketch:type="MSShapeGroup">
                <path d="M0.543810651,0 L121.651833,0 C137.119091,0 151.27142,1.77584431 164.109243,5.32758621 C176.947067,8.8793281 187.928656,14.1296504 197.054338,21.0787106 C206.18002,28.0277709 213.294852,36.6753606 218.399047,47.0217391 C223.503242,57.3681177 226.055301,69.4901854 226.055301,83.3883058 C226.055301,93.2714137 224.817939,101.687372 222.343178,108.636432 C219.868416,115.585492 217.239022,121.376289 214.454916,126.008996 C211.052119,131.568244 207.185363,136.200881 202.85453,139.907046 C209.660124,144.230906 215.846934,149.790071 221.415147,156.584708 C226.055324,162.452803 230.308756,169.865023 234.175571,178.821589 C238.042385,187.778156 239.975763,198.742064 239.975763,211.713643 C239.975763,226.538305 237.346369,239.972953 232.087501,252.017991 C226.828634,264.063029 219.327126,274.332041 209.582754,282.825337 C199.838381,291.318633 187.928772,297.804325 173.853567,302.282609 C159.778363,306.760892 144.079331,309 126.756003,309 L0.543810651,309 L0.543810651,0 Z" id="b" stroke-width="15"></path>
                <path d="M85,125 C108.195959,125 127,106.195959 127,83 C127,59.8040405 108.195959,41 85,41 C61.8040405,41 43,59.8040405 43,83 C43,106.195959 61.8040405,125 85,125 Z" id="o" stroke-width="10"></path>
                <circle id="O" stroke-width="10" cx="138" cy="212" r="60"></circle>
            </g>
        </g>
    </g>
</svg>