<?xml version="1.0" encoding="UTF-8" standalone="no"?>
<svg width="588px" height="333px" viewBox="0 0 588 333" version="1.1" xmlns="http://www.w3.org/2000/svg" xmlns:xlink="http://www.w3.org/1999/xlink" xmlns:sketch="http://www.bohemiancoding.com/sketch/ns">
    <!-- Generator: Sketch 3.2.2 (9983) - http://www.bohemiancoding.com/sketch -->
    <title>Group + Oval 2 + Oval 3</title>
    <desc>Created with Sketch.</desc>
    <defs>
        <radialGradient cx="50%" cy="0%" fx="50%" fy="0%" r="100%" id="radialGradient-1">
            <stop stop-color="#9B00FF" offset="0%"></stop>
            <stop stop-color="#00C8FF" offset="100%"></stop>
        </radialGradient>
    </defs>
    <g id="Page-1" stroke="none" stroke-width="1" fill="none" fill-rule="evenodd" sketch:type="MSPage">
        <g id="Triangle-1-+-b" sketch:type="MSLayerGroup" transform="translate(17.000000, 14.000000)" stroke="url(#radialGradient-1)">
            <g id="Group-+-Oval-2-+-Oval-3" sketch:type="MSShapeGroup">
                <g id="Group">
                    <polygon id="Triangle-1" stroke-width="20" points="150.476331 8.30645161 300.952663 309 0 309 "></polygon>
                    <path d="M192.425713,244.445314 L208.543546,276.653226 L52.409117,276.653226 L86.0664607,209.396495 C100.002395,234.787924 126.99115,252 158,252 C170.294916,252 181.957833,249.294092 192.425713,244.445314 Z" id="Triangle-5" stroke-width="10"></path>
                    <path d="M321.543811,0 L442.651833,0 C458.119091,0 472.27142,1.77584431 485.109243,5.32758621 C497.947067,8.8793281 508.928656,14.1296504 518.054338,21.0787106 C527.18002,28.0277709 534.294852,36.6753606 539.399047,47.0217391 C544.503242,57.3681177 547.055301,69.4901854 547.055301,83.3883058 C547.055301,93.2714137 545.817939,101.687372 543.343178,108.636432 C540.868416,115.585492 538.239022,121.376289 535.454916,126.008996 C532.052119,131.568244 528.185363,136.200881 523.85453,139.907046 C530.660124,144.230906 536.846934,149.790071 542.415147,156.584708 C547.055324,162.452803 551.308756,169.865023 555.175571,178.821589 C559.042385,187.778156 560.975763,198.742064 560.975763,211.713643 C560.975763,226.538305 558.346369,239.972953 553.087501,252.017991 C547.828634,264.063029 540.327126,274.332041 530.582754,282.825337 C520.838381,291.318633 508.928772,297.804325 494.853567,302.282609 C480.778363,306.760892 465.079331,309 447.756003,309 L321.543811,309 L321.543811,0 Z" id="b" stroke-width="20"></path>
                </g>
                <path d="M406,125 C429.195959,125 448,106.195959 448,83 C448,59.8040405 429.195959,41 406,41 C382.804041,41 364,59.8040405 364,83 C364,106.195959 382.804041,125 406,125 Z" id="Oval-2" stroke-width="10"></path>
                <circle id="Oval-3" stroke-width="10" cx="459" cy="212" r="60"></circle>
            </g>
        </g>
    </g>
</svg>