<?xml version="1.0" encoding="UTF-8" standalone="no"?>
<svg width="612px" height="612px" viewBox="0 0 612 612" version="1.1" xmlns="http://www.w3.org/2000/svg" xmlns:xlink="http://www.w3.org/1999/xlink" xmlns:sketch="http://www.bohemiancoding.com/sketch/ns">
    <!-- Generator: Sketch 3.2.2 (9983) - http://www.bohemiancoding.com/sketch -->
    <title>Shape + Shape</title>
    <desc>Created with Sketch.</desc>
    <defs>
        <radialGradient cx="57.8456904%" cy="10.8621834%" fx="57.8456904%" fy="10.8621834%" r="81.5742507%" id="radialGradient-1">
            <stop stop-color="#9013FE" offset="0%"></stop>
            <stop stop-color="#0099EA" offset="100%"></stop>
        </radialGradient>
    </defs>
    <g id="Page-1" stroke="none" stroke-width="1" fill="none" fill-rule="evenodd" sketch:type="MSPage">
        <g id="Shape-+-Shape" sketch:type="MSLayerGroup">
            <path d="M612,306 C612,137.004 474.995,0 306,0 C137.004,0 0,137.004 0,306 C0,474.995 137.004,612 306,612 C474.995,612 612,474.995 612,306 L612,306 Z M27.818,306 C27.818,152.36 152.36,27.818 306,27.818 C459.64,27.818 584.182,152.36 584.182,306 C584.182,459.64 459.64,584.182 306,584.182 C152.36,584.182 27.818,459.64 27.818,306 L27.818,306 Z" id="Shape" fill="url(#radialGradient-1)" sketch:type="MSShapeGroup"></path>
            <path d="M317.739,482.617 L317.739,306 L376.018,306 L385.226,247.471 L317.739,247.471 L317.739,218.123 C317.739,202.851 322.746,188.274 344.667,188.274 L388.48,188.274 L388.48,129.856 L326.279,129.856 C273.981,129.856 259.71,164.294 259.71,212.031 L259.71,247.444 L223.825,247.444 L223.825,306 L259.71,306 L259.71,482.617 L317.739,482.617 L317.739,482.617 L317.739,482.617 Z" id="Shape" fill="#0099EA" sketch:type="MSShapeGroup"></path>
        </g>
    </g>
</svg>